<svg width="20" height="21" viewBox="0 0 20 21" fill="none" xmlns="http://www.w3.org/2000/svg">
<path d="M16.875 17.675H3.125" stroke="#807E7E" stroke-width="1.2" stroke-linecap="round" stroke-linejoin="round"/>
<path d="M11.25 7.05005V14.55C11.25 14.8952 11.5298 15.175 11.875 15.175H15C15.3452 15.175 15.625 14.8952 15.625 14.55V7.05005C15.625 6.70487 15.3452 6.42505 15 6.42505H11.875C11.5298 6.42505 11.25 6.70487 11.25 7.05005Z" stroke="#807E7E" stroke-width="1.2" stroke-linecap="round" stroke-linejoin="round"/>
<path d="M8.125 3.30005H5C4.65482 3.30005 4.375 3.57987 4.375 3.92505V14.55C4.375 14.8952 4.65482 15.175 5 15.175H8.125C8.47018 15.175 8.75 14.8952 8.75 14.55V3.92505C8.75 3.57987 8.47018 3.30005 8.125 3.30005Z" stroke="#807E7E" stroke-width="1.2" stroke-linecap="round" stroke-linejoin="round"/>
</svg>
