<svg width="33" height="32" viewBox="0 0 33 32" fill="none" xmlns="http://www.w3.org/2000/svg">
<path d="M22.5 29C21.3954 29 20.5 28.1046 20.5 27C20.5 25.8954 21.3954 25 22.5 25C23.6046 25 24.5 25.8954 24.5 27C24.5 28.1046 23.6046 29 22.5 29Z" fill="#FF2A63"/>
<path d="M22.5 29C21.3954 29 20.5 28.1046 20.5 27C20.5 25.8954 21.3954 25 22.5 25C23.6046 25 24.5 25.8954 24.5 27C24.5 28.1046 23.6046 29 22.5 29Z" fill="#FF2A63"/>
<circle cx="16.5" cy="3" r="3" fill="#FF2A63"/>
<path d="M9.5 29C8.39543 29 7.5 28.1046 7.5 27C7.5 25.8954 8.39543 25 9.5 25C10.6046 25 11.5 25.8954 11.5 27C11.5 28.1046 10.6046 29 9.5 29Z" fill="#FF2A63"/>
<path d="M9.5 29C8.39543 29 7.5 28.1046 7.5 27C7.5 25.8954 8.39543 25 9.5 25C10.6046 25 11.5 25.8954 11.5 27C11.5 28.1046 10.6046 29 9.5 29Z" fill="#FF2A63"/>
<path d="M27.2143 9H4.78571L8.08556 20.5494C8.20495 20.9673 8.45724 21.335 8.80421 21.5967C9.15119 21.8584 9.57398 22 10.0086 22H21.9914C22.426 22 22.8488 21.8584 23.1958 21.5967C23.5428 21.335 23.795 20.9673 23.9144 20.5494L28.4356 4.72528C28.4953 4.51633 28.6215 4.33251 28.795 4.20165C28.9685 4.07079 29.1798 4 29.3972 4H31.5" stroke="#FF2A63" stroke-width="2" stroke-linecap="round" stroke-linejoin="round"/>
<path d="M27.2143 9H4.78571L8.08556 20.5494C8.20495 20.9673 8.45724 21.335 8.80421 21.5967C9.15119 21.8584 9.57398 22 10.0086 22H21.9914C22.426 22 22.8488 21.8584 23.1958 21.5967C23.5428 21.335 23.795 20.9673 23.9144 20.5494L28.4356 4.72528C28.4953 4.51633 28.6215 4.33251 28.795 4.20165C28.9685 4.07079 29.1798 4 29.3972 4H31.5" stroke="#FF2A63" stroke-width="2" stroke-linecap="round" stroke-linejoin="round"/>
</svg>
