<svg width="28" height="29" viewBox="0 0 28 29" fill="none" xmlns="http://www.w3.org/2000/svg">
<path d="M19.25 25.4205C18.2835 25.4205 17.5 24.637 17.5 23.6705C17.5 22.704 18.2835 21.9205 19.25 21.9205C20.2165 21.9205 21 22.704 21 23.6705C21 24.637 20.2165 25.4205 19.25 25.4205Z" fill="#3B3B3B"/>
<path d="M19.25 25.4205C18.2835 25.4205 17.5 24.637 17.5 23.6705C17.5 22.704 18.2835 21.9205 19.25 21.9205C20.2165 21.9205 21 22.704 21 23.6705C21 24.637 20.2165 25.4205 19.25 25.4205Z" fill="black" fill-opacity="0.2"/>
<path d="M7.875 25.4205C6.9085 25.4205 6.125 24.637 6.125 23.6705C6.125 22.704 6.9085 21.9205 7.875 21.9205C8.8415 21.9205 9.625 22.704 9.625 23.6705C9.625 24.637 8.8415 25.4205 7.875 25.4205Z" fill="#3B3B3B"/>
<path d="M7.875 25.4205C6.9085 25.4205 6.125 24.637 6.125 23.6705C6.125 22.704 6.9085 21.9205 7.875 21.9205C8.8415 21.9205 9.625 22.704 9.625 23.6705C9.625 24.637 8.8415 25.4205 7.875 25.4205Z" fill="black" fill-opacity="0.2"/>
<path d="M23.375 7.92047H3.75L6.63736 18.0262C6.74184 18.3919 6.96258 18.7136 7.26619 18.9426C7.56979 19.1716 7.93974 19.2955 8.32003 19.2955H18.805C19.1853 19.2955 19.5552 19.1716 19.8588 18.9426C20.1624 18.7136 20.3832 18.3919 20.4876 18.0262L24.4437 4.18009C24.4959 3.99726 24.6063 3.83642 24.7581 3.72192C24.9099 3.60741 25.0949 3.54547 25.285 3.54547H27.125" stroke="#3B3B3B" stroke-width="1.5" stroke-linecap="round" stroke-linejoin="round"/>
<path d="M23.375 7.92047H3.75L6.63736 18.0262C6.74184 18.3919 6.96258 18.7136 7.26619 18.9426C7.56979 19.1716 7.93974 19.2955 8.32003 19.2955H18.805C19.1853 19.2955 19.5552 19.1716 19.8588 18.9426C20.1624 18.7136 20.3832 18.3919 20.4876 18.0262L24.4437 4.18009C24.4959 3.99726 24.6063 3.83642 24.7581 3.72192C24.9099 3.60741 25.0949 3.54547 25.285 3.54547H27.125" stroke="black" stroke-opacity="0.2" stroke-width="1.5" stroke-linecap="round" stroke-linejoin="round"/>
</svg>
