<svg width="25" height="24" viewBox="0 0 25 24" fill="none" xmlns="http://www.w3.org/2000/svg">
<path d="M22.5586 11.25H16.5586V7.5H20.5508C20.7007 7.5 20.8472 7.54491 20.9713 7.62895C21.0954 7.71298 21.1915 7.83228 21.2472 7.97146L22.5586 11.25Z" stroke="#3B3B3B" stroke-width="1.5" stroke-linecap="round" stroke-linejoin="round"/>
<path d="M1.55859 13.5H16.5586" stroke="#3B3B3B" stroke-width="1.5" stroke-linecap="round" stroke-linejoin="round"/>
<path d="M17.6836 20.25C18.9262 20.25 19.9336 19.2426 19.9336 18C19.9336 16.7574 18.9262 15.75 17.6836 15.75C16.441 15.75 15.4336 16.7574 15.4336 18C15.4336 19.2426 16.441 20.25 17.6836 20.25Z" stroke="#3B3B3B" stroke-width="1.5" stroke-linecap="round" stroke-linejoin="round"/>
<path d="M6.43359 20.25C7.67623 20.25 8.68359 19.2426 8.68359 18C8.68359 16.7574 7.67623 15.75 6.43359 15.75C5.19095 15.75 4.18359 16.7574 4.18359 18C4.18359 19.2426 5.19095 20.25 6.43359 20.25Z" stroke="#3B3B3B" stroke-width="1.5" stroke-linecap="round" stroke-linejoin="round"/>
<path d="M15.4336 18H8.68359" stroke="#3B3B3B" stroke-width="1.5" stroke-linecap="round" stroke-linejoin="round"/>
<path d="M4.18359 18H2.30859C2.10968 18 1.91892 17.921 1.77826 17.7803C1.63761 17.6397 1.55859 17.4489 1.55859 17.25V6.75C1.55859 6.55109 1.63761 6.36032 1.77826 6.21967C1.91892 6.07902 2.10968 6 2.30859 6H16.5586V16.0514" stroke="#3B3B3B" stroke-width="1.5" stroke-linecap="round" stroke-linejoin="round"/>
<path d="M16.5586 16.0514V11.25H22.5586V17.25C22.5586 17.4489 22.4796 17.6397 22.3389 17.7803C22.1983 17.921 22.0075 18 21.8086 18H19.9336" stroke="#3B3B3B" stroke-width="1.5" stroke-linecap="round" stroke-linejoin="round"/>
</svg>
