<svg width="69" height="21" viewBox="0 0 69 21" fill="none" xmlns="http://www.w3.org/2000/svg">
<path d="M0.750122 0.98913C0.750122 0.442849 1.19297 0 1.73925 0H59.1088C64.5716 0 69.0001 4.42849 69.0001 9.8913V19.7826C69.0001 20.3289 68.5573 20.7717 68.011 20.7717H1.73925C1.19297 20.7717 0.750122 20.3289 0.750122 19.7826V0.98913Z" fill="#E6E6E6"/>
<path d="M16.5762 11.5446H20.4852V12.7394H16.5762V11.5446ZM29.832 15.8097V16.8859H23.7548V15.8097H26.1841V8.07865C26.1841 7.84653 26.192 7.61178 26.2078 7.37439L24.19 9.10734C24.1214 9.16537 24.0528 9.2023 23.9843 9.21812C23.9157 9.22868 23.8524 9.22868 23.7943 9.21812C23.7363 9.20757 23.6809 9.18647 23.6282 9.15482C23.5807 9.12317 23.5438 9.08888 23.5174 9.05195L23.0743 8.44265L26.4531 5.52273H27.6005V15.8097H29.832ZM34.1379 9.82743C34.7288 9.70082 35.2721 9.63752 35.768 9.63752C36.3589 9.63752 36.8811 9.72456 37.3348 9.89865C37.7885 10.0727 38.1657 10.3128 38.4664 10.6187C38.7723 10.9247 39.0018 11.2861 39.1548 11.7028C39.3131 12.1196 39.3922 12.5733 39.3922 13.0639C39.3922 13.6653 39.2867 14.2086 39.0757 14.694C38.8699 15.1793 38.5824 15.596 38.2131 15.9442C37.8491 16.2871 37.4192 16.5509 36.9233 16.7355C36.4274 16.9202 35.892 17.0125 35.317 17.0125C34.9846 17.0125 34.6655 16.9782 34.3595 16.9096C34.0535 16.8463 33.766 16.7593 33.497 16.6485C33.2332 16.5377 32.9879 16.4111 32.7611 16.2686C32.5342 16.1262 32.3338 15.9759 32.1597 15.8176L32.5949 15.2162C32.6898 15.0791 32.8138 15.0105 32.9668 15.0105C33.0723 15.0105 33.191 15.0527 33.3229 15.1371C33.4548 15.2162 33.6157 15.3059 33.8056 15.4061C33.9955 15.5064 34.2171 15.5987 34.4703 15.6831C34.7288 15.7622 35.0347 15.8018 35.3882 15.8018C35.7838 15.8018 36.1399 15.7385 36.4565 15.6119C36.773 15.4853 37.0447 15.3059 37.2715 15.0738C37.4983 14.8364 37.6724 14.5542 37.7938 14.2271C37.9151 13.9 37.9758 13.5334 37.9758 13.1272C37.9758 12.7737 37.923 12.4546 37.8175 12.1697C37.7173 11.8848 37.5616 11.6422 37.3506 11.4417C37.1449 11.2412 36.8864 11.0856 36.5751 10.9748C36.2639 10.864 35.8999 10.8086 35.4831 10.8086C35.1983 10.8086 34.9002 10.8324 34.589 10.8799C34.283 10.9273 33.9691 11.0038 33.6473 11.1093L32.7611 10.8482L33.6711 5.54647H39.044V6.16369C39.044 6.36415 38.9807 6.53033 38.8541 6.66221C38.7328 6.78882 38.5218 6.85213 38.2211 6.85213H34.6602L34.1379 9.82743ZM46.4835 8.28439C46.4835 8.72752 46.4149 9.12581 46.2778 9.47926C46.1406 9.82743 45.956 10.1228 45.7239 10.3655C45.497 10.6029 45.2306 10.7849 44.9246 10.9115C44.6239 11.0381 44.3048 11.1014 43.9672 11.1014C43.6137 11.1014 43.284 11.0381 42.978 10.9115C42.6721 10.7849 42.4057 10.6029 42.1788 10.3655C41.9573 10.1228 41.7832 9.82743 41.6566 9.47926C41.5299 9.12581 41.4666 8.72752 41.4666 8.28439C41.4666 7.8307 41.5299 7.42714 41.6566 7.07369C41.7832 6.72024 41.9573 6.42218 42.1788 6.17952C42.4057 5.93685 42.6721 5.75221 42.978 5.6256C43.284 5.49899 43.6137 5.43569 43.9672 5.43569C44.3259 5.43569 44.6582 5.49899 44.9642 5.6256C45.2702 5.75221 45.5366 5.93685 45.7634 6.17952C45.9903 6.42218 46.167 6.72024 46.2936 7.07369C46.4202 7.42714 46.4835 7.8307 46.4835 8.28439ZM45.3915 8.28439C45.3915 7.93621 45.3546 7.64079 45.2807 7.39813C45.2069 7.15546 45.104 6.95763 44.9721 6.80465C44.8455 6.64639 44.6952 6.53297 44.5211 6.46439C44.347 6.39581 44.1624 6.36152 43.9672 6.36152C43.772 6.36152 43.59 6.39581 43.4212 6.46439C43.2524 6.53297 43.1046 6.64639 42.978 6.80465C42.8514 6.95763 42.7512 7.15546 42.6773 7.39813C42.6035 7.64079 42.5666 7.93621 42.5666 8.28439C42.5666 8.62728 42.6035 8.92007 42.6773 9.16273C42.7512 9.40012 42.8514 9.59531 42.978 9.7483C43.1046 9.89601 43.2524 10.0042 43.4212 10.0727C43.59 10.136 43.772 10.1677 43.9672 10.1677C44.1624 10.1677 44.347 10.136 44.5211 10.0727C44.6952 10.0042 44.8455 9.89601 44.9721 9.7483C45.104 9.59531 45.2069 9.40012 45.2807 9.16273C45.3546 8.92007 45.3915 8.62728 45.3915 8.28439ZM50.4954 5.78386C50.5482 5.72056 50.6088 5.66517 50.6774 5.61769C50.7513 5.57021 50.8489 5.54647 50.9702 5.54647H51.991L43.6981 16.6564C43.6506 16.725 43.59 16.7804 43.5161 16.8226C43.4423 16.8648 43.3526 16.8859 43.2471 16.8859H42.2105L50.4954 5.78386ZM52.7586 14.2113C52.7586 14.6544 52.69 15.05 52.5528 15.3982C52.4157 15.7464 52.231 16.0418 51.9989 16.2845C51.7721 16.5219 51.5057 16.7039 51.1997 16.8305C50.899 16.9571 50.5798 17.0204 50.2422 17.0204C49.8835 17.0204 49.5511 16.9571 49.2452 16.8305C48.9445 16.7039 48.6807 16.5219 48.4539 16.2845C48.2323 16.0418 48.0582 15.7464 47.9316 15.3982C47.805 15.05 47.7417 14.6544 47.7417 14.2113C47.7417 13.7576 47.805 13.354 47.9316 13.0006C48.0582 12.6418 48.2323 12.3411 48.4539 12.0985C48.6807 11.8558 48.9445 11.6712 49.2452 11.5446C49.5511 11.418 49.8835 11.3546 50.2422 11.3546C50.5957 11.3546 50.9254 11.418 51.2313 11.5446C51.5426 11.6712 51.809 11.8558 52.0306 12.0985C52.2574 12.3411 52.4341 12.6418 52.5607 13.0006C52.6926 13.354 52.7586 13.7576 52.7586 14.2113ZM51.6666 14.2113C51.6666 13.8631 51.6296 13.5677 51.5558 13.325C51.4819 13.0771 51.3791 12.8766 51.2472 12.7236C51.1206 12.5706 50.9702 12.4598 50.7961 12.3913C50.622 12.3227 50.4374 12.2884 50.2422 12.2884C50.047 12.2884 49.8624 12.3227 49.6883 12.3913C49.5195 12.4598 49.3718 12.5706 49.2452 12.7236C49.1186 12.8766 49.0183 13.0771 48.9445 13.325C48.8759 13.5677 48.8416 13.8631 48.8416 14.2113C48.8416 14.5542 48.8759 14.8443 48.9445 15.0817C49.0183 15.3191 49.1186 15.5143 49.2452 15.6673C49.3718 15.815 49.5195 15.9231 49.6883 15.9917C49.8624 16.055 50.047 16.0866 50.2422 16.0866C50.4374 16.0866 50.622 16.055 50.7961 15.9917C50.9702 15.9231 51.1206 15.815 51.2472 15.6673C51.3791 15.5143 51.4819 15.3191 51.5558 15.0817C51.6296 14.8443 51.6666 14.5542 51.6666 14.2113Z" fill="#807E7E"/>
</svg>
