<svg width="20" height="21" viewBox="0 0 20 21" fill="none" xmlns="http://www.w3.org/2000/svg">
<path d="M6.25 14.55L1.875 18.925" stroke="#807E7E" stroke-width="1.2" stroke-linecap="round" stroke-linejoin="round"/>
<path d="M18.125 2.67505L13.75 7.05005" stroke="#807E7E" stroke-width="1.2" stroke-linecap="round" stroke-linejoin="round"/>
<path d="M10.2391 6.18727L5.38881 11.0376C4.65658 11.7698 4.65658 12.957 5.38881 13.6892L7.11239 15.4128C7.84462 16.145 9.0318 16.145 9.76404 15.4128L14.6143 10.5625C15.3466 9.83026 15.3466 8.64308 14.6143 7.91084L12.8908 6.18727C12.1585 5.45504 10.9714 5.45504 10.2391 6.18727Z" stroke="#807E7E" stroke-width="1.2" stroke-linecap="round" stroke-linejoin="round"/>
<path d="M7.1875 7.98755L12.8125 13.6125" stroke="#807E7E" stroke-width="1.2" stroke-linecap="round" stroke-linejoin="round"/>
<path d="M17.5 13.3L15.625 12.675" stroke="#807E7E" stroke-width="1.2" stroke-linecap="round" stroke-linejoin="round"/>
<path d="M4.375 8.92505L2.5 8.30005" stroke="#807E7E" stroke-width="1.2" stroke-linecap="round" stroke-linejoin="round"/>
<path d="M7.5 3.30005L8.125 5.17505" stroke="#807E7E" stroke-width="1.2" stroke-linecap="round" stroke-linejoin="round"/>
<path d="M11.875 16.425L12.5 18.3" stroke="#807E7E" stroke-width="1.2" stroke-linecap="round" stroke-linejoin="round"/>
</svg>
