<svg width="20" height="21" viewBox="0 0 20 21" fill="none" xmlns="http://www.w3.org/2000/svg">
<path d="M1.25 17.675H18.75" stroke="#807E7E" stroke-width="1.2" stroke-linecap="round" stroke-linejoin="round"/>
<path d="M11.25 17.675V3.92505C11.25 3.75929 11.1842 3.60032 11.0669 3.48311C10.9497 3.3659 10.7908 3.30005 10.625 3.30005H3.125C2.95924 3.30005 2.80027 3.3659 2.68306 3.48311C2.56585 3.60032 2.5 3.75929 2.5 3.92505V17.675" stroke="#807E7E" stroke-width="1.2" stroke-linecap="round" stroke-linejoin="round"/>
<path d="M17.5 17.675V8.92505C17.5 8.75929 17.4342 8.60032 17.3169 8.48311C17.1997 8.3659 17.0408 8.30005 16.875 8.30005H11.25" stroke="#807E7E" stroke-width="1.2" stroke-linecap="round" stroke-linejoin="round"/>
<path d="M5 6.42505H7.5" stroke="#807E7E" stroke-width="1.2" stroke-linecap="round" stroke-linejoin="round"/>
<path d="M6.25 11.425H8.75" stroke="#807E7E" stroke-width="1.2" stroke-linecap="round" stroke-linejoin="round"/>
<path d="M5 14.55H7.5" stroke="#807E7E" stroke-width="1.2" stroke-linecap="round" stroke-linejoin="round"/>
<path d="M13.75 14.55H15" stroke="#807E7E" stroke-width="1.2" stroke-linecap="round" stroke-linejoin="round"/>
<path d="M13.75 11.425H15" stroke="#807E7E" stroke-width="1.2" stroke-linecap="round" stroke-linejoin="round"/>
</svg>
