<svg width="20" height="21" viewBox="0 0 20 21" fill="none" xmlns="http://www.w3.org/2000/svg">
<path d="M3.81261 8.30005C3.71938 8.29985 3.62736 8.27879 3.54332 8.23841C3.45928 8.19804 3.38533 8.13937 3.3269 8.06671C3.26847 7.99405 3.22704 7.90923 3.20565 7.81848C3.18425 7.72773 3.18343 7.63335 3.20324 7.54224C3.70324 5.13599 6.5548 3.30005 10.0001 3.30005C13.4454 3.30005 16.297 5.13599 16.797 7.54224C16.8168 7.63335 16.816 7.72773 16.7946 7.81848C16.7732 7.90923 16.7318 7.99405 16.6733 8.06671C16.6149 8.13937 16.541 8.19804 16.4569 8.23841C16.3729 8.27879 16.2809 8.29985 16.1876 8.30005H3.81261Z" stroke="#807E7E" stroke-width="1.2" stroke-linecap="round" stroke-linejoin="round"/>
<path d="M16.25 13.925V15.175C16.25 15.8381 15.9866 16.474 15.5178 16.9428C15.0489 17.4117 14.413 17.675 13.75 17.675H6.25C5.58696 17.675 4.95107 17.4117 4.48223 16.9428C4.01339 16.474 3.75 15.8381 3.75 15.175V13.925" stroke="#807E7E" stroke-width="1.2" stroke-linecap="round" stroke-linejoin="round"/>
<path d="M2.1875 14.55L5.3125 13.3L8.4375 14.55L11.5625 13.3L14.6875 14.55L17.8125 13.3" stroke="#807E7E" stroke-width="1.2" stroke-linecap="round" stroke-linejoin="round"/>
<path d="M1.875 10.8H18.125" stroke="#807E7E" stroke-width="1.2" stroke-linecap="round" stroke-linejoin="round"/>
</svg>
