<svg width="20" height="21" viewBox="0 0 20 21" fill="none" xmlns="http://www.w3.org/2000/svg">
<path d="M2.5 10.8H5.625L6.875 8.92505L9.375 12.675L10.625 10.8H12.5" stroke="#807E7E" stroke-width="1.2" stroke-linecap="round" stroke-linejoin="round"/>
<path d="M2.19531 8.30006C2.1875 8.19849 2.1875 8.08912 2.1875 7.98756C2.1875 7.0484 2.51289 6.13826 3.1083 5.41198C3.70371 4.68569 4.53236 4.18813 5.45328 4.00395C6.37419 3.81976 7.33047 3.96034 8.15943 4.40175C8.98838 4.84316 9.63879 5.55815 10 6.42506V6.42506C10.3612 5.55815 11.0116 4.84316 11.8406 4.40175C12.6695 3.96034 13.6258 3.81976 14.5467 4.00395C15.4676 4.18813 16.2963 4.68569 16.8917 5.41198C17.4871 6.13826 17.8125 7.0484 17.8125 7.98756C17.8125 13.3001 10 17.6751 10 17.6751C10 17.6751 6.88281 15.9251 4.58594 13.3001" stroke="#807E7E" stroke-width="1.2" stroke-linecap="round" stroke-linejoin="round"/>
</svg>
