<svg width="24" height="24" viewBox="0 0 24 24" fill="none" xmlns="http://www.w3.org/2000/svg">
<path d="M4.93269 19.0673C4.04808 18.1827 4.63462 16.3269 4.18269 15.2404C3.73077 14.1538 2 13.2019 2 12C2 10.7981 3.71154 9.88462 4.18269 8.75962C4.65385 7.63462 4.04808 5.81731 4.93269 4.93269C5.81731 4.04808 7.67308 4.63462 8.75962 4.18269C9.84615 3.73077 10.7981 2 12 2C13.2019 2 14.1154 3.71154 15.2404 4.18269C16.3654 4.65385 18.1827 4.04808 19.0673 4.93269C19.9519 5.81731 19.3654 7.67308 19.8173 8.75962C20.2692 9.84615 22 10.7981 22 12C22 13.2019 20.2885 14.1154 19.8173 15.2404C19.3462 16.3654 19.9519 18.1827 19.0673 19.0673C18.1827 19.9519 16.3269 19.3654 15.2404 19.8173C14.1538 20.2692 13.2019 22 12 22C10.7981 22 9.88462 20.2885 8.75962 19.8173C7.63462 19.3462 5.81731 19.9519 4.93269 19.0673Z" stroke="#807E7E" stroke-width="1.5" stroke-linecap="round" stroke-linejoin="round"/>
<path d="M12 17.9615C12.531 17.9615 12.9615 17.531 12.9615 17C12.9615 16.4689 12.531 16.0385 12 16.0385C11.4689 16.0385 11.0385 16.4689 11.0385 17C11.0385 17.531 11.4689 17.9615 12 17.9615Z" fill="#807E7E"/>
<path d="M12 13.5385V12.7693C12.5325 12.7693 13.0531 12.6114 13.4958 12.3155C13.9386 12.0197 14.2836 11.5992 14.4874 11.1073C14.6912 10.6153 14.7445 10.074 14.6406 9.55171C14.5367 9.02945 14.2803 8.54973 13.9038 8.1732C13.5273 7.79668 13.0475 7.54026 12.5253 7.43638C12.003 7.33249 11.4617 7.38581 10.9697 7.58958C10.4778 7.79336 10.0573 8.13844 9.76147 8.58119C9.46564 9.02393 9.30774 9.54446 9.30774 10.077" stroke="#807E7E" stroke-width="1.5" stroke-linecap="round" stroke-linejoin="round"/>
</svg>
