<svg width="32" height="33" viewBox="0 0 32 33" fill="none" xmlns="http://www.w3.org/2000/svg">
<path d="M16 13.5V16.5H6.99999C6.20434 16.5 5.44128 16.1839 4.87867 15.6213C4.31606 15.0587 3.99999 14.2956 3.99999 13.5C3.99999 12.7044 4.31606 11.9413 4.87867 11.3787C5.44128 10.8161 6.20434 10.5 6.99999 10.5H13C13.7956 10.5 14.5587 10.8161 15.1213 11.3787C15.6839 11.9413 16 12.7044 16 13.5H16Z" stroke="#3B3B3B" stroke-width="2" stroke-linecap="round" stroke-linejoin="round"/>
<path d="M16 10.5H13C12.2044 10.5 11.4413 10.1839 10.8787 9.62132C10.3161 9.05871 10 8.29565 10 7.5C10 6.70435 10.3161 5.94129 10.8787 5.37868C11.4413 4.81607 12.2044 4.5 13 4.5V4.5C13.7956 4.5 14.5587 4.81607 15.1213 5.37868C15.6839 5.94129 16 6.70435 16 7.5V10.5Z" stroke="#3B3B3B" stroke-width="2" stroke-linecap="round" stroke-linejoin="round"/>
<path d="M19 16.5H16V7.49999C16 6.70434 16.3161 5.94128 16.8787 5.37867C17.4413 4.81606 18.2044 4.49999 19 4.49999C19.7956 4.49999 20.5587 4.81606 21.1213 5.37867C21.6839 5.94128 22 6.70434 22 7.49999V13.5C22 14.2956 21.6839 15.0587 21.1213 15.6213C20.5587 16.1839 19.7956 16.5 19 16.5V16.5Z" stroke="#3B3B3B" stroke-width="2" stroke-linecap="round" stroke-linejoin="round"/>
<path d="M22 16.5V13.5C22 12.7044 22.3161 11.9413 22.8787 11.3787C23.4413 10.8161 24.2044 10.5 25 10.5V10.5C25.7956 10.5 26.5587 10.8161 27.1213 11.3787C27.6839 11.9413 28 12.7044 28 13.5V13.5C28 14.2956 27.6839 15.0587 27.1213 15.6213C26.5587 16.1839 25.7956 16.5 25 16.5H22Z" stroke="#3B3B3B" stroke-width="2" stroke-linecap="round" stroke-linejoin="round"/>
<path d="M16 19.5V16.5H25C25.7957 16.5 26.5587 16.8161 27.1213 17.3787C27.6839 17.9413 28 18.7044 28 19.5V19.5C28 20.2956 27.6839 21.0587 27.1213 21.6213C26.5587 22.1839 25.7957 22.5 25 22.5H19C18.2044 22.5 17.4413 22.1839 16.8787 21.6213C16.3161 21.0587 16 20.2956 16 19.5H16Z" stroke="#3B3B3B" stroke-width="2" stroke-linecap="round" stroke-linejoin="round"/>
<path d="M16 22.5H19C19.7956 22.5 20.5587 22.8161 21.1213 23.3787C21.6839 23.9413 22 24.7044 22 25.5V25.5C22 26.2956 21.6839 27.0587 21.1213 27.6213C20.5587 28.1839 19.7956 28.5 19 28.5V28.5C18.2044 28.5 17.4413 28.1839 16.8787 27.6213C16.3161 27.0587 16 26.2956 16 25.5V22.5Z" stroke="#3B3B3B" stroke-width="2" stroke-linecap="round" stroke-linejoin="round"/>
<path d="M13 16.5H16V25.5C16 26.2956 15.6839 27.0587 15.1213 27.6213C14.5587 28.1839 13.7956 28.5 13 28.5V28.5C12.2044 28.5 11.4413 28.1839 10.8787 27.6213C10.3161 27.0587 10 26.2956 10 25.5V19.5C10 18.7044 10.3161 17.9413 10.8787 17.3787C11.4413 16.8161 12.2044 16.5 13 16.5V16.5Z" stroke="#3B3B3B" stroke-width="2" stroke-linecap="round" stroke-linejoin="round"/>
<path d="M10 16.5V19.5C10 20.2956 9.68393 21.0587 9.12132 21.6213C8.55871 22.1839 7.79565 22.5 7 22.5C6.20435 22.5 5.44129 22.1839 4.87868 21.6213C4.31607 21.0587 4 20.2956 4 19.5V19.5C4 18.7044 4.31607 17.9413 4.87868 17.3787C5.44129 16.8161 6.20435 16.5 7 16.5H10Z" stroke="#3B3B3B" stroke-width="2" stroke-linecap="round" stroke-linejoin="round"/>
</svg>
