<svg width="32" height="33" viewBox="0 0 32 33" fill="none" xmlns="http://www.w3.org/2000/svg">
<path d="M12 20C12.8284 20 13.5 19.3284 13.5 18.5C13.5 17.6716 12.8284 17 12 17C11.1716 17 10.5 17.6716 10.5 18.5C10.5 19.3284 11.1716 20 12 20Z" fill="#3B3B3B"/>
<path d="M20 20C20.8284 20 21.5 19.3284 21.5 18.5C21.5 17.6716 20.8284 17 20 17C19.1716 17 18.5 17.6716 18.5 18.5C18.5 19.3284 19.1716 20 20 20Z" fill="#3B3B3B"/>
<path d="M9.30017 10.4998C11.4681 9.82129 13.7284 9.48393 16 9.49984C18.2715 9.48393 20.5317 9.82128 22.6996 10.4998" stroke="#3B3B3B" stroke-width="1.5" stroke-linecap="round" stroke-linejoin="round"/>
<path d="M22.6996 22.5C20.5317 23.1785 18.2715 23.5159 16 23.5C13.7284 23.5159 11.4682 23.1785 9.30029 22.5" stroke="#3B3B3B" stroke-width="1.5" stroke-linecap="round" stroke-linejoin="round"/>
<path d="M19.3805 23.261L20.8837 26.2673C20.9838 26.4692 21.1495 26.6312 21.3536 26.7268C21.5578 26.8224 21.7883 26.8459 22.0075 26.7934C25.0749 26.0435 27.7192 24.736 29.6451 23.0621C29.7921 22.9356 29.8996 22.7694 29.9544 22.5833C30.0092 22.3973 30.0091 22.1994 29.9541 22.0134L25.7073 7.85758C25.6645 7.71484 25.5903 7.58345 25.4903 7.47298C25.3902 7.3625 25.2668 7.27572 25.129 7.21895C23.9293 6.72773 22.6884 6.34361 21.421 6.07108C21.1795 6.01817 20.9269 6.05637 20.7119 6.17834C20.4969 6.30032 20.3345 6.49746 20.256 6.73189L19.2594 9.72184" stroke="#3B3B3B" stroke-width="1.5" stroke-linecap="round" stroke-linejoin="round"/>
<path d="M12.6194 23.2609L11.1162 26.2673C11.0161 26.4692 10.8504 26.6312 10.6463 26.7268C10.4421 26.8224 10.2116 26.8458 9.99235 26.7934C6.92502 26.0435 4.28076 24.7361 2.35485 23.0621C2.20777 22.9356 2.10037 22.7694 2.04555 22.5833C1.99074 22.3973 1.99084 22.1994 2.04586 22.0134L6.29258 7.85757C6.33545 7.71483 6.4096 7.58345 6.50964 7.47297C6.60969 7.3625 6.7331 7.27571 6.8709 7.21894C8.07065 6.72772 9.3115 6.34361 10.5789 6.07108C10.8204 6.01817 11.073 6.05637 11.288 6.17834C11.503 6.30032 11.6654 6.49746 11.7439 6.73189L12.7405 9.72184" stroke="#3B3B3B" stroke-width="1.5" stroke-linecap="round" stroke-linejoin="round"/>
<path d="M12 20C12.8284 20 13.5 19.3284 13.5 18.5C13.5 17.6716 12.8284 17 12 17C11.1716 17 10.5 17.6716 10.5 18.5C10.5 19.3284 11.1716 20 12 20Z" fill="#3B3B3B"/>
<path d="M20 20C20.8284 20 21.5 19.3284 21.5 18.5C21.5 17.6716 20.8284 17 20 17C19.1716 17 18.5 17.6716 18.5 18.5C18.5 19.3284 19.1716 20 20 20Z" fill="#3B3B3B"/>
<path d="M9.30017 10.4998C11.4681 9.82129 13.7284 9.48393 16 9.49984C18.2715 9.48393 20.5317 9.82128 22.6996 10.4998" stroke="#3B3B3B" stroke-width="1.5" stroke-linecap="round" stroke-linejoin="round"/>
<path d="M22.6996 22.5C20.5317 23.1785 18.2715 23.5159 16 23.5C13.7284 23.5159 11.4682 23.1785 9.30029 22.5" stroke="#3B3B3B" stroke-width="1.5" stroke-linecap="round" stroke-linejoin="round"/>
<path d="M19.3805 23.261L20.8837 26.2673C20.9838 26.4692 21.1495 26.6312 21.3536 26.7268C21.5578 26.8224 21.7883 26.8459 22.0075 26.7934C25.0749 26.0435 27.7192 24.736 29.6451 23.0621C29.7921 22.9356 29.8996 22.7694 29.9544 22.5833C30.0092 22.3973 30.0091 22.1994 29.9541 22.0134L25.7073 7.85758C25.6645 7.71484 25.5903 7.58345 25.4903 7.47298C25.3902 7.3625 25.2668 7.27572 25.129 7.21895C23.9293 6.72773 22.6884 6.34361 21.421 6.07108C21.1795 6.01817 20.9269 6.05637 20.7119 6.17834C20.4969 6.30032 20.3345 6.49746 20.256 6.73189L19.2594 9.72184" stroke="#3B3B3B" stroke-width="1.5" stroke-linecap="round" stroke-linejoin="round"/>
<path d="M12.6194 23.2609L11.1162 26.2673C11.0161 26.4692 10.8504 26.6312 10.6463 26.7268C10.4421 26.8224 10.2116 26.8458 9.99235 26.7934C6.92502 26.0435 4.28076 24.7361 2.35485 23.0621C2.20777 22.9356 2.10037 22.7694 2.04555 22.5833C1.99074 22.3973 1.99084 22.1994 2.04586 22.0134L6.29258 7.85757C6.33545 7.71483 6.4096 7.58345 6.50964 7.47297C6.60969 7.3625 6.7331 7.27571 6.8709 7.21894C8.07065 6.72772 9.3115 6.34361 10.5789 6.07108C10.8204 6.01817 11.073 6.05637 11.288 6.17834C11.503 6.30032 11.6654 6.49746 11.7439 6.73189L12.7405 9.72184" stroke="#3B3B3B" stroke-width="1.5" stroke-linecap="round" stroke-linejoin="round"/>
</svg>
