<svg width="32" height="33" viewBox="0 0 32 33" fill="none" xmlns="http://www.w3.org/2000/svg">
<path d="M23.5 6.5C24.6046 6.5 25.5 5.60457 25.5 4.5C25.5 3.39543 24.6046 2.5 23.5 2.5C22.3954 2.5 21.5 3.39543 21.5 4.5C21.5 5.60457 22.3954 6.5 23.5 6.5Z" stroke="#3B3B3B" stroke-width="2" stroke-linecap="round" stroke-linejoin="round"/>
<path d="M20.128 22.5C18.8512 23.1571 17.4359 23.4999 15.9998 23.4999C14.5638 23.4999 13.1485 23.1571 11.8716 22.5" stroke="#3B3B3B" stroke-width="2" stroke-linecap="round" stroke-linejoin="round"/>
<path d="M16 9.5L17 3.5L21.5231 4.19587" stroke="#3B3B3B" stroke-width="2" stroke-linecap="round" stroke-linejoin="round"/>
<path d="M7.42616 11.7348C9.71473 10.3435 12.7152 9.5 16.0002 9.5C19.2852 9.5 22.2856 10.3435 24.5742 11.7348L24.574 11.7351C24.8362 11.3748 25.1753 11.0774 25.5668 10.8646C25.9582 10.6517 26.3922 10.5288 26.8371 10.5046C27.282 10.4804 27.7268 10.5556 28.139 10.7248C28.5512 10.894 28.9206 11.1528 29.2202 11.4826C29.5199 11.8123 29.7424 12.2047 29.8715 12.6311C30.0006 13.0576 30.0331 13.5075 29.9666 13.9481C29.9001 14.3887 29.7363 14.8089 29.4871 15.1783C29.2379 15.5477 28.9096 15.8569 28.526 16.0836L28.5262 16.0835C28.8379 16.8511 28.9988 17.6715 29.0002 18.5C29.0002 23.4706 23.1799 27.5 16.0002 27.5C8.82046 27.5 3.00016 23.4706 3.00016 18.5C3.00154 17.6715 3.16245 16.8511 3.47412 16.0835L3.47437 16.0836C3.09071 15.8569 2.76234 15.5477 2.51312 15.1783C2.26391 14.8089 2.1001 14.3887 2.0336 13.948C1.9671 13.5074 1.99958 13.0575 2.12868 12.6311C2.25777 12.2046 2.48025 11.8122 2.77994 11.4824C3.07963 11.1527 3.44902 10.8938 3.86126 10.7246C4.27349 10.5555 4.71824 10.4802 5.16318 10.5044C5.60812 10.5286 6.04209 10.6516 6.43356 10.8645C6.82502 11.0774 7.16416 11.3748 7.42633 11.7351L7.42616 11.7348Z" stroke="#3B3B3B" stroke-width="2" stroke-linecap="round" stroke-linejoin="round"/>
<path d="M11 19C12.1046 19 13 18.1046 13 17C13 15.8954 12.1046 15 11 15C9.89543 15 9 15.8954 9 17C9 18.1046 9.89543 19 11 19Z" fill="#3B3B3B"/>
<path d="M21 19C22.1046 19 23 18.1046 23 17C23 15.8954 22.1046 15 21 15C19.8954 15 19 15.8954 19 17C19 18.1046 19.8954 19 21 19Z" fill="#3B3B3B"/>
</svg>
