<svg width="32" height="33" viewBox="0 0 32 33" fill="none" xmlns="http://www.w3.org/2000/svg">
<path d="M16 21.5C18.7614 21.5 21 19.2614 21 16.5C21 13.7386 18.7614 11.5 16 11.5C13.2386 11.5 11 13.7386 11 16.5C11 19.2614 13.2386 21.5 16 21.5Z" stroke="#3B3B3B" stroke-width="1.5" stroke-miterlimit="10"/>
<path d="M21.5 5H10.5C7.18629 5 4.5 7.68629 4.5 11V22C4.5 25.3137 7.18629 28 10.5 28H21.5C24.8137 28 27.5 25.3137 27.5 22V11C27.5 7.68629 24.8137 5 21.5 5Z" stroke="#3B3B3B" stroke-width="1.5" stroke-linecap="round" stroke-linejoin="round"/>
<path d="M22.5 11.5C23.3284 11.5 24 10.8284 24 10C24 9.17157 23.3284 8.5 22.5 8.5C21.6716 8.5 21 9.17157 21 10C21 10.8284 21.6716 11.5 22.5 11.5Z" fill="#3B3B3B"/>
</svg>
