<svg width="45" height="38" viewBox="0 0 45 38" fill="none" xmlns="http://www.w3.org/2000/svg">
<path d="M22.0605 26.8093C22.0605 26.8093 12.6855 21.5593 12.6855 15.1843C12.6857 14.0576 13.0762 12.9657 13.7904 12.0943C14.5047 11.2228 15.4987 10.6257 16.6035 10.4043C17.7083 10.183 18.8557 10.3511 19.8505 10.8801C20.8454 11.4091 21.6263 12.2663 22.0606 13.3061L22.0605 13.3061C22.4948 12.2663 23.2757 11.4091 24.2706 10.8801C25.2654 10.3511 26.4128 10.183 27.5176 10.4043C28.6223 10.6257 29.6164 11.2228 30.3307 12.0943C31.0449 12.9657 31.4354 14.0576 31.4355 15.1843C31.4355 21.5593 22.0605 26.8093 22.0605 26.8093Z" stroke="#3B3B3B" stroke-width="1.5" stroke-linecap="round" stroke-linejoin="round"/>
</svg>
