<svg width="29" height="28" viewBox="0 0 29 28" fill="none" xmlns="http://www.w3.org/2000/svg">
<path d="M19.0476 16.6246C18.5864 17.4224 17.9233 18.0848 17.1251 18.5454C16.3269 19.0059 15.4216 19.2483 14.5 19.2483C13.5785 19.2484 12.6731 19.0059 11.8749 18.5454C11.0767 18.0849 10.4137 17.4225 9.95239 16.6247" stroke="#3B3B3B" stroke-width="1.5" stroke-linecap="round" stroke-linejoin="round"/>
<path d="M19.0476 16.6246C18.5864 17.4224 17.9233 18.0848 17.1251 18.5454C16.3269 19.0059 15.4216 19.2483 14.5 19.2483C13.5785 19.2484 12.6731 19.0059 11.8749 18.5454C11.0767 18.0849 10.4137 17.4225 9.95239 16.6247" stroke="black" stroke-opacity="0.2" stroke-width="1.5" stroke-linecap="round" stroke-linejoin="round"/>
<path d="M17.5862 24.0391C15.348 24.7254 12.9446 24.6433 10.7585 23.8057C8.57238 22.9682 6.72933 21.4234 5.52273 19.4172C4.31613 17.4111 3.81535 15.0589 4.10012 12.7353C4.38489 10.4116 5.43884 8.25 7.09417 6.59459C8.7495 4.93919 10.9111 3.88514 13.2347 3.60026C15.5583 3.31538 17.9105 3.81605 19.9167 5.02255C21.9229 6.22905 23.4678 8.07204 24.3055 10.2581C25.1431 12.4441 25.2254 14.8476 24.5392 17.0858L17.5862 24.0391Z" stroke="#3B3B3B" stroke-width="1.5" stroke-linecap="round" stroke-linejoin="round"/>
<path d="M17.5862 24.0391C15.348 24.7254 12.9446 24.6433 10.7585 23.8057C8.57238 22.9682 6.72933 21.4234 5.52273 19.4172C4.31613 17.4111 3.81535 15.0589 4.10012 12.7353C4.38489 10.4116 5.43884 8.25 7.09417 6.59459C8.7495 4.93919 10.9111 3.88514 13.2347 3.60026C15.5583 3.31538 17.9105 3.81605 19.9167 5.02255C21.9229 6.22905 23.4678 8.07204 24.3055 10.2581C25.1431 12.4441 25.2254 14.8476 24.5392 17.0858L17.5862 24.0391Z" stroke="black" stroke-opacity="0.2" stroke-width="1.5" stroke-linecap="round" stroke-linejoin="round"/>
<path d="M10.5625 12.9062C11.1666 12.9062 11.6562 12.4166 11.6562 11.8125C11.6562 11.2084 11.1666 10.7188 10.5625 10.7188C9.95844 10.7188 9.46875 11.2084 9.46875 11.8125C9.46875 12.4166 9.95844 12.9062 10.5625 12.9062Z" fill="#3B3B3B"/>
<path d="M10.5625 12.9062C11.1666 12.9062 11.6562 12.4166 11.6562 11.8125C11.6562 11.2084 11.1666 10.7188 10.5625 10.7188C9.95844 10.7188 9.46875 11.2084 9.46875 11.8125C9.46875 12.4166 9.95844 12.9062 10.5625 12.9062Z" fill="black" fill-opacity="0.2"/>
<path d="M18.4375 12.9062C19.0416 12.9062 19.5312 12.4166 19.5312 11.8125C19.5312 11.2084 19.0416 10.7188 18.4375 10.7188C17.8334 10.7188 17.3438 11.2084 17.3438 11.8125C17.3438 12.4166 17.8334 12.9062 18.4375 12.9062Z" fill="#3B3B3B"/>
<path d="M18.4375 12.9062C19.0416 12.9062 19.5312 12.4166 19.5312 11.8125C19.5312 11.2084 19.0416 10.7188 18.4375 10.7188C17.8334 10.7188 17.3438 11.2084 17.3438 11.8125C17.3438 12.4166 17.8334 12.9062 18.4375 12.9062Z" fill="black" fill-opacity="0.2"/>
</svg>
