<svg width="20" height="21" viewBox="0 0 20 21" fill="none" xmlns="http://www.w3.org/2000/svg">
<path d="M14.4218 15.2219C11.1718 18.464 6.6718 18.2062 4.49993 17.839C4.11515 17.7745 3.76009 17.5916 3.48422 17.3157C3.20834 17.0398 3.02539 16.6848 2.96086 16.3C2.59368 14.1281 2.33586 9.6281 5.57805 6.3781C8.82024 3.1281 13.3281 3.39373 15.4999 3.76092C15.8847 3.82544 16.2398 4.00839 16.5156 4.28427C16.7915 4.56014 16.9745 4.91521 17.039 5.29998C17.4062 7.47185 17.664 11.9719 14.4218 15.2219Z" stroke="#807E7E" stroke-width="1.2" stroke-linecap="round" stroke-linejoin="round"/>
<path d="M12.5 8.30005L7.5 13.3" stroke="#807E7E" stroke-width="1.2" stroke-linecap="round" stroke-linejoin="round"/>
<path d="M9.74219 8.77661L12.0234 11.0579" stroke="#807E7E" stroke-width="1.2" stroke-linecap="round" stroke-linejoin="round"/>
<path d="M7.97656 10.5422L10.2578 12.8235" stroke="#807E7E" stroke-width="1.2" stroke-linecap="round" stroke-linejoin="round"/>
<path d="M11.5781 3.62817L17.1719 9.22192" stroke="#807E7E" stroke-width="1.2" stroke-linecap="round" stroke-linejoin="round"/>
<path d="M2.82812 12.3782L8.42187 17.9719" stroke="#807E7E" stroke-width="1.2" stroke-linecap="round" stroke-linejoin="round"/>
</svg>
