<svg width="16" height="17" viewBox="0 0 16 17" fill="none" xmlns="http://www.w3.org/2000/svg">
<path d="M15.9581 6.54549C15.8528 6.20742 15.5654 5.96806 15.2268 5.93609L10.6081 5.49853L8.78274 1.03909C8.64797 0.711457 8.34132 0.5 8.00001 0.5C7.6587 0.5 7.35193 0.711457 7.21802 1.03909L5.39267 5.49853L0.773215 5.93609C0.434587 5.9687 0.147839 6.20805 0.0418804 6.54549C-0.0634679 6.88357 0.0338237 7.25438 0.289931 7.48877L3.78132 10.6834L2.75188 15.4147C2.67656 15.7626 2.80596 16.1223 3.08258 16.331C3.23126 16.4437 3.40595 16.5 3.58124 16.5C3.73188 16.5 3.88264 16.4582 4.01728 16.3741L8.00001 13.8891L11.982 16.3741C12.2741 16.5563 12.6414 16.5396 12.9174 16.331C13.1941 16.1223 13.3235 15.7626 13.2481 15.4147L12.2187 10.6834L15.7101 7.48877C15.9661 7.25438 16.0635 6.88433 15.9581 6.54549Z" fill="#F9990F"/>
</svg>
