<svg width="72" height="12" viewBox="0 0 72 12" fill="none" xmlns="http://www.w3.org/2000/svg">
<path d="M5.75488 0.768295L3.97603 4.21375L0 4.76308L2.87744 7.4462L2.19718 11.2317L5.75488 9.44546L9.31258 11.2317L8.63232 7.4462L11.5098 4.76681L7.53373 4.21375L5.75488 0.768295Z" fill="#FFE100"/>
<path d="M20.7529 0.768265L18.9741 4.21372L14.998 4.76305L17.8755 7.44617L17.1952 11.2317L20.7529 9.44543L24.3106 11.2317L23.6304 7.44617L26.5078 4.76678L22.5318 4.21372L20.7529 0.768265Z" fill="#FFE100"/>
<path d="M35.749 0.768265L33.9702 4.21372L29.9941 4.76305L32.8716 7.44617L32.1913 11.2317L35.749 9.44543L39.3067 11.2317L38.6265 7.44617L41.5039 4.76678L37.5279 4.21372L35.749 0.768265Z" fill="#FFE100"/>
<path d="M50.7471 0.768265L48.9682 4.21372L44.9922 4.76305L47.8696 7.44617L47.1894 11.2317L50.7471 9.44543L54.3048 11.2317L53.6245 7.44617L56.5019 4.76678L52.5259 4.21372L50.7471 0.768265Z" fill="#FFE100"/>
<path d="M65.7451 0.768265L63.9663 4.21372L59.9902 4.76305L62.8677 7.44617L62.1874 11.2317L65.7451 9.44543L69.3028 11.2317L68.6226 7.44617L71.5 4.76678L67.524 4.21372L65.7451 0.768265Z" fill="#B3B3B3"/>
</svg>
