<svg width="20" height="21" viewBox="0 0 20 21" fill="none" xmlns="http://www.w3.org/2000/svg">
<path d="M4.25476 16.5453C3.53569 15.8262 4.01262 14.3166 3.64662 13.432C3.26722 12.515 1.875 11.777 1.875 10.8C1.875 9.82306 3.26722 9.08505 3.64663 8.16808C4.01263 7.28351 3.5357 5.77387 4.25476 5.05481C4.97382 4.33574 6.48346 4.81267 7.36804 4.44667C8.28502 4.06727 9.02305 2.67505 10 2.67505C10.977 2.67505 11.715 4.06727 12.632 4.44668C13.5165 4.81267 15.0262 4.33574 15.7452 5.05481C16.4643 5.77387 15.9874 7.28351 16.3534 8.16809C16.7328 9.08507 18.125 9.8231 18.125 10.8001C18.125 11.777 16.7328 12.515 16.3534 13.432C15.9874 14.3166 16.4643 15.8262 15.7452 16.5453C15.0262 17.2644 13.5165 16.7874 12.632 17.1534C11.715 17.5328 10.9769 18.925 9.99997 18.925C9.02301 18.925 8.285 17.5328 7.36803 17.1534C6.48346 16.7874 4.97382 17.2644 4.25476 16.5453Z" stroke="#807E7E" stroke-width="1.2" stroke-linecap="round" stroke-linejoin="round"/>
<path d="M13.4375 8.92505L8.85414 13.3L6.5625 11.1125" stroke="#807E7E" stroke-width="1.2" stroke-linecap="round" stroke-linejoin="round"/>
</svg>
