<svg width="20" height="21" viewBox="0 0 20 21" fill="none" xmlns="http://www.w3.org/2000/svg">
<path d="M1.875 17.675H13.125" stroke="#807E7E" stroke-width="1.2" stroke-linecap="round" stroke-linejoin="round"/>
<path d="M1.32022 11.7689L4.26553 14.5267C4.65826 14.8948 5.15932 15.1264 5.6942 15.1869C6.22909 15.2474 6.76922 15.1337 7.23428 14.8626L19.0624 7.98763L17.6093 6.20638C17.2313 5.74471 16.7006 5.43347 16.1132 5.32888C15.5257 5.22428 14.9203 5.33324 14.4062 5.63607L10.9374 7.67513L6.2499 6.11263L4.96084 6.66732C4.8644 6.70865 4.77992 6.77359 4.71518 6.85616C4.65044 6.93873 4.60754 7.03627 4.59041 7.13979C4.57329 7.24331 4.5825 7.34947 4.6172 7.44849C4.6519 7.54751 4.71097 7.6362 4.78897 7.70638L7.1874 9.86263L4.99991 11.1126L2.81241 10.1751L1.49991 10.7376C1.40442 10.7786 1.32066 10.8428 1.25623 10.9244C1.19179 11.0059 1.1487 11.1022 1.13086 11.2046C1.11302 11.307 1.12099 11.4122 1.15406 11.5107C1.18712 11.6093 1.24423 11.698 1.32022 11.7689V11.7689Z" stroke="#807E7E" stroke-width="1.2" stroke-linecap="round" stroke-linejoin="round"/>
</svg>
