<svg width="48" height="48" viewBox="0 0 48 48" fill="none" xmlns="http://www.w3.org/2000/svg">
<rect width="47.8813" height="47.8813" rx="8" fill="#F2F2F2"/>
<path d="M20.9857 19.3377L19.3789 29.1021H21.9127L23.5195 19.3377H20.9857Z" fill="#0072FF"/>
<path d="M35.632 19.3378C35.014 19.3378 34.5814 19.5232 34.3342 20.1412L30.5645 29.1639H33.2218C33.2218 29.1639 33.6544 27.9279 33.778 27.6807C34.087 27.6807 36.6208 27.6807 36.9916 27.6807C37.0534 28.0515 37.3006 29.1639 37.3006 29.1639H39.649L37.6096 19.3378H35.632ZM34.4578 25.6413C34.6432 25.0851 35.4466 22.9222 35.4466 22.9222C35.4466 22.9222 35.632 22.366 35.7556 21.9952L35.941 22.8604C35.941 22.8604 36.4354 25.2087 36.559 25.7031H34.4578V25.6413Z" fill="#0072FF"/>
<path d="M28.5884 23.2929C27.7232 22.8603 27.167 22.5513 27.167 22.0569C27.167 21.6243 27.5996 21.1917 28.5884 21.1917C29.3918 21.1917 30.0098 21.3771 30.5042 21.5625L30.7514 21.6861L31.1221 19.5849C30.6278 19.3995 29.8244 19.1523 28.8356 19.1523C26.3636 19.1523 24.5714 20.5119 24.5714 22.3659C24.5714 23.7873 25.8074 24.5907 26.7962 25.0233C27.785 25.5177 28.094 25.8267 28.094 26.2593C28.094 26.939 27.2906 27.1862 26.549 27.1862C25.5602 27.1862 25.004 27.0626 24.1388 26.6918L23.8298 26.5065L23.459 28.6694C24.077 28.9166 25.1276 29.1638 26.3018 29.1638C28.9592 29.1638 30.6896 27.866 30.6896 25.8267C30.7514 24.8379 30.0716 23.9727 28.5884 23.2929Z" fill="#0072FF"/>
<path d="M17.2781 19.3377L14.8061 26.0121L14.5589 24.6525L13.6937 20.1411C13.5701 19.5231 13.0757 19.3377 12.5195 19.3377H8.50251C8.44071 19.3377 8.44071 19.3995 8.37891 19.3995C8.37891 19.4613 8.37891 19.5231 8.44071 19.5231C9.0587 19.7085 9.6149 19.8939 10.1093 20.1411C10.6655 20.3883 11.0363 20.8827 11.2217 21.4389L13.2611 29.1021H15.9185L19.8737 19.3377H17.2781Z" fill="#0072FF"/>
</svg>
