<svg width="27" height="24" viewBox="0 0 27 24" fill="none" xmlns="http://www.w3.org/2000/svg">
<path d="M2.00006 20.5C2.00006 20.5 7.00006 19.5 8.00006 16.5C8.00006 16.5 6.47902e-05 13.5 2.00006 2.5C2.00006 2.5 6.00006 7.5 12.0001 8.5V6.50036C12.0002 5.35156 12.3958 4.23783 13.1205 3.34641C13.8451 2.45498 14.8546 1.84023 15.9791 1.60551C17.1037 1.37078 18.2748 1.5304 19.2955 2.05752C20.3162 2.58464 21.1244 3.44712 21.584 4.49996L26.0001 4.5L22.0001 8.5C22.0001 15.5 17.0001 22.5 8.00006 22.5C4.00006 22.5 2.00006 20.5 2.00006 20.5Z" stroke="#3B3B3B" stroke-width="2" stroke-linecap="round" stroke-linejoin="round"/>
</svg>
